<?xml version="1.0" encoding="utf-8"?>
<!-- Generator: Adobe Illustrator 24.1.3, SVG Export Plug-In . SVG Version: 6.00 Build 0)  -->
<svg version="1.1" id="Layer_1" xmlns="http://www.w3.org/2000/svg" xmlns:xlink="http://www.w3.org/1999/xlink" x="0px" y="0px"
	 viewBox="0 0 1074 490.4" style="enable-background:new 0 0 1074 490.4;" xml:space="preserve">
<style type="text/css">
	.st0{fill:#FFFFFF;}
</style>
<path class="st0" d="M419.6,258.2c1.1,0,2.4,0.2,3.6,0.9s2.2,1.4,2.9,2.4l29.9,46.1l-6.2-0.2l30.7-45.8c1.6-2.2,3.6-3.4,6.1-3.4
	c2,0,3.7,0.7,5.3,2.1c1.6,1.4,2.4,3.2,2.4,5.5V337c0,2.1-0.7,4-2.1,5.3c-1.4,1.5-3.2,2.1-5.6,2.1s-4.2-0.7-5.6-2.1
	c-1.5-1.5-2.1-3.2-2.1-5.3v-58l4.8,1.1l-25.2,38.2c-0.7,0.9-1.6,1.7-2.7,2.4c-1.1,0.6-2.2,1-3.4,0.9c-1.1,0.1-2.1-0.2-3.2-0.9
	c-1.1-0.6-2-1.5-2.7-2.4l-23.6-37.1l3.2-6.6V337c0,2.1-0.6,4-2,5.3c-1.4,1.5-3,2.1-5.2,2.1c-2.1,0-3.7-0.7-5.1-2.1
	c-1.4-1.5-2-3.2-2-5.3v-71.3c0-2,0.7-3.8,2.2-5.3C415.6,258.9,417.5,258.2,419.6,258.2z"/>
<path class="st0" d="M538.6,277.7L512,340.1c-0.6,1.6-1.5,2.7-2.6,3.6c-1.2,0.9-2.5,1.2-3.8,1.2c-2.2,0-3.8-0.6-5-1.9
	s-1.6-2.7-1.6-4.6c0-0.7,0.1-1.5,0.4-2.4l30.7-73.6c0.6-1.6,1.6-2.9,3-3.8c1.4-0.9,2.9-1.2,4.3-1.1c1.5,0,2.9,0.4,4.1,1.2
	c1.2,0.9,2.2,2.1,2.7,3.6l30.3,72.1c0.4,1.1,0.6,2.1,0.6,3c0,2.2-0.7,4-2.1,5.3c-1.5,1.4-3,2-4.7,2c-1.5,0-2.9-0.5-4-1.4
	c-1.2-0.9-2.1-2.1-2.7-3.7l-26.4-61.6L538.6,277.7z M515.9,325.2l6.8-14.2H556l2.4,14.2H515.9z"/>
<path class="st0" d="M588.9,344.4c-2.4,0-4.3-0.7-6.2-2.1c-1.9-1.5-2.7-3.2-2.7-5.3v-71.1c0-2.1,0.7-4,2.1-5.3
	c1.5-1.5,3.2-2.1,5.3-2.1h35.4c4.2,0,8.3,1.1,12,3.4c3.7,2.2,6.7,5.3,9.1,9.3c2.2,4,3.5,8.6,3.5,13.7c0,3.1-0.6,6.2-1.9,9.1
	s-3,5.6-5.2,7.9s-4.6,4.2-7.3,5.6l0.1-2.9c2.2,1.2,4.2,2.7,5.7,4.3c1.5,1.7,2.7,3.5,3.6,5.5s1.4,4,1.5,6.2c0.4,2.1,0.5,3.8,0.6,5.5
	c0.1,1.6,0.4,2.9,0.7,4c0.4,1.1,1.1,1.9,2.1,2.5c1.9,1.1,3,2.6,3.4,4.6c0.5,2,0,3.8-1.4,5.3c-0.9,1.1-2.1,1.7-3.5,2
	c-1.4,0.2-2.7,0.2-4.2,0c-1.4-0.2-2.5-0.6-3.5-1.1c-1.4-0.9-2.7-2-4.2-3.6c-1.4-1.6-2.5-3.7-3.4-6.5c-0.9-2.7-1.2-6.2-1.2-10.4
	c0-1.4-0.2-2.7-0.7-3.8c-0.5-1.2-1.2-2.2-2.1-3.1c-0.9-0.9-2.1-1.5-3.5-2s-3-0.6-5-0.6h-24.8l1.9-2.9V337c0,2.1-0.6,4-1.7,5.3
	C592.6,343.7,591,344.4,588.9,344.4z M593.7,300.4h28.7c1.5,0,2.9-0.6,4.3-2c1.4-1.4,2.5-3.2,3.5-5.6c0.9-2.4,1.4-4.8,1.4-7.7
	c0-3.6-1-6.6-2.9-9.1c-2-2.4-4-3.6-6.2-3.6h-28.4l1.5-4v34.8L593.7,300.4z"/>
<path class="st0" d="M734.6,301.4c0,6.2-1,11.9-3.1,17.3c-2.1,5.3-5,10.1-8.7,14c-3.7,4.1-8.2,7.2-13.3,9.6
	c-5.1,2.2-10.7,3.5-16.8,3.5c-6.1,0-11.7-1.1-16.8-3.5s-9.4-5.5-13.3-9.6c-3.7-4.1-6.6-8.8-8.7-14c-2.1-5.3-3.1-11-3.1-17.3
	s1-11.9,3.1-17.3c2-5.3,5-10.1,8.7-14c3.7-4.1,8.2-7.2,13.3-9.6c5.1-2.4,10.7-3.5,16.8-3.5c6.1,0,11.7,1.1,16.8,3.5
	s9.6,5.5,13.3,9.6c3.7,4.1,6.6,8.8,8.7,14C733.5,289.4,734.6,295.3,734.6,301.4z M718.6,301.4c0-5.5-1.1-10.4-3.4-14.9
	c-2.2-4.5-5.2-8.1-9.1-10.7c-3.8-2.6-8.3-4-13.4-4c-5.1,0-9.6,1.4-13.4,4c-3.8,2.6-6.8,6.2-9.1,10.6c-2.2,4.5-3.2,9.4-3.2,15
	c0,5.5,1.1,10.4,3.2,14.9c2.1,4.5,5.2,8.1,9.1,10.7c3.8,2.6,8.3,4,13.4,4c5.1,0,9.6-1.4,13.4-4c3.8-2.6,6.8-6.2,9.1-10.7
	C717.5,311.9,718.6,306.9,718.6,301.4z M735.1,347.9c1.7,0,3.4,0.7,4.8,2.1c1.5,1.5,2.2,3.1,2.2,5c0,1.9-0.9,3.7-2.5,5.3
	c-1.7,1.7-3.8,3.2-6.5,4.5c-2.6,1.4-5.3,2.4-8.2,3.1s-5.3,1.1-7.7,1.1c-5.1,0-9.2-0.5-12.2-1.4c-3-1-5.6-2-7.4-3.2
	c-2-1.2-3.8-2.2-5.6-3.2c-1.7-1-3.8-1.4-6.3-1.4c-1.6,0-2.9,0.2-3.7,0.7c-1,0.5-2,1.1-3.1,1.6c-1.1,0.5-2.6,0.7-4.6,0.7
	c-2.1,0-3.7-0.7-5.2-2.4c-1.4-1.6-2.1-3.2-2.1-5.1c0-3.2,1.5-5.3,4.3-6.5l25.4-9.4l11,2.7l-23.8,8.8l7-4.1c2.9,0,5.3,0.4,7.6,1.2
	c2.1,0.9,4.2,1.9,6.2,2.9c2,1.1,4,2,6.1,2.9c2.1,0.9,4.5,1.2,7.2,1.2c2.2,0,4.1-0.4,5.6-1.1c1.5-0.7,2.9-1.6,4-2.5
	c1.4-1.1,2.6-2,3.7-2.9C732.5,348.3,733.8,347.9,735.1,347.9z"/>
<path class="st0" d="M801.9,258.2c2.1,0,3.8,0.7,5.2,2.1c1.4,1.5,2,3.2,2,5.3v44.6c0,6.8-1.5,12.8-4.3,18.1c-2.9,5.2-7,9.3-12,12.3
	c-5.1,3-11,4.5-17.8,4.5c-6.7,0-12.7-1.5-17.8-4.5s-9.2-7.1-12-12.3c-2.9-5.2-4.3-11.3-4.3-18.1v-44.6c0-2.1,0.7-4,2.2-5.3
	c1.5-1.5,3.4-2.1,5.7-2.1c1.9,0,3.6,0.7,5.1,2.1c1.5,1.5,2.2,3.2,2.2,5.3v44.6c0,4.1,0.9,7.7,2.6,10.7c1.7,3,4.1,5.3,7,7
	c2.9,1.6,6,2.5,9.3,2.5c3.5,0,6.8-0.9,9.8-2.5c3-1.6,5.5-4,7.3-7s2.9-6.6,2.9-10.7v-44.6c0-2.1,0.6-4,1.9-5.3
	C798.1,258.9,799.7,258.2,801.9,258.2z"/>
<path class="st0" d="M824,258.3h41.2c2.1,0,4,0.6,5.3,2c1.5,1.4,2.1,3.1,2.1,5.2c0,2.1-0.7,3.7-2.1,5c-1.5,1.2-3.2,1.9-5.3,1.9
	h-34.4l1.1-2.1v24l-1-1h28.8c2.1,0,4,0.6,5.3,2c1.5,1.4,2.1,3.1,2.1,5.2s-0.7,3.7-2.1,5c-1.5,1.2-3.2,1.9-5.3,1.9h-28.6l0.6-1V331
	l-1-1.1h34.3c2.1,0,4,0.7,5.3,2.1c1.5,1.5,2.1,3.1,2.1,5c0,2.1-0.7,3.7-2.1,5.1c-1.5,1.4-3.2,2-5.3,2h-41.2c-2.1,0-4-0.7-5.3-2.1
	c-1.5-1.5-2.1-3.2-2.1-5.3v-71.1c0-2.1,0.7-4,2.1-5.3C820,259,821.8,258.3,824,258.3z"/>
<path class="st0" d="M885.4,272.4c-2.1,0-4-0.6-5.3-2c-1.5-1.4-2.1-3-2.1-5.2c0-2.1,0.7-3.8,2.1-5.1c1.5-1.2,3.2-1.9,5.3-1.9h50.8
	c2.1,0,4,0.6,5.3,2c1.5,1.4,2.1,3,2.1,5.2c0,2.1-0.7,3.8-2.1,5.1c-1.5,1.2-3.2,1.9-5.3,1.9H885.4z M910.6,344.4
	c-2.4,0-4.2-0.7-5.7-2.1c-1.5-1.5-2.2-3.2-2.2-5.3v-71.4h16V337c0,2.1-0.7,4-2.2,5.3C915,343.7,913.1,344.4,910.6,344.4z"/>
<path class="st0" d="M953.8,272.4c-2.1,0-4-0.6-5.3-2c-1.5-1.4-2.1-3-2.1-5.2c0-2.1,0.7-3.8,2.1-5.1c1.5-1.2,3.2-1.9,5.3-1.9h50.8
	c2.1,0,4,0.6,5.3,2c1.5,1.4,2.1,3,2.1,5.2c0,2.1-0.7,3.8-2.1,5.1c-1.5,1.2-3.2,1.9-5.3,1.9H953.8z M979.2,344.4
	c-2.4,0-4.2-0.7-5.7-2.1c-1.5-1.5-2.2-3.2-2.2-5.3v-71.4h16V337c0,2.1-0.7,4-2.2,5.3C983.4,343.7,981.5,344.4,979.2,344.4z"/>
<path class="st0" d="M1025.3,258.3h41.2c2.1,0,4,0.6,5.3,2c1.5,1.4,2.1,3.1,2.1,5.2c0,2.1-0.7,3.7-2.1,5c-1.5,1.2-3.2,1.9-5.3,1.9
	h-34.4l1.1-2.1v24l-1-1h28.8c2.1,0,4,0.6,5.3,2c1.5,1.4,2.1,3.1,2.1,5.2s-0.7,3.7-2.1,5c-1.5,1.2-3.2,1.9-5.3,1.9h-28.4l0.6-1V331
	l-1-1.1h34.3c2.1,0,4,0.7,5.3,2.1c1.5,1.5,2.1,3.1,2.1,5c0,2.1-0.7,3.7-2.1,5.1c-1.5,1.4-3.2,2-5.3,2h-41.2c-2.1,0-4-0.7-5.3-2.1
	c-1.5-1.5-2.1-3.2-2.1-5.3v-71.1c0-2.1,0.7-4,2.1-5.3C1021.4,259,1023.2,258.3,1025.3,258.3z"/>
<path class="st0" d="M416.7,230.9v-63.7h-15.1c-1.4,0-2-1.1-2-3.1v-1.7c0-2.1,0.6-3.1,2-3.1h39.6c0.7,0,1.4,0.2,1.6,0.7
	c0.4,0.5,0.5,1.2,0.5,2.5v1.7c0,1.1-0.1,2-0.5,2.5c-0.4,0.5-0.9,0.7-1.6,0.7h-15v63.7c0,1.5-1.4,2.4-4,2.4h-1.5
	C418.1,233.2,416.7,232.3,416.7,230.9z"/>
<path class="st0" d="M482.5,230.9v-68.5c0-1.1,0.2-2,0.7-2.5c0.5-0.5,1.1-0.7,2.1-0.7H501c7,0,12.2,1.5,15.5,4.5
	c3.4,3,5.1,7.7,5.1,14.3c0,4.3-0.9,8.1-2.6,11c-1.7,3-4.1,5.2-7.1,6.8v0.4c1.4,0.7,2.6,2.1,3.7,4.1c1.1,2,2.2,5.1,3.6,9.1L526,230
	c0.2,0.6,0.4,1.1,0.4,1.5c0,1.1-1.4,1.7-4.1,1.7h-1.7c-1,0-1.9-0.1-2.6-0.5c-0.7-0.4-1.1-0.7-1.4-1.2l-6.3-20.6
	c-1.2-4-2.7-6.7-4.2-8.2c-1.5-1.5-4-2.1-7-2.1h-6.7V231c0,1.5-1.4,2.4-4,2.4h-1.5C483.7,233.2,482.5,232.3,482.5,230.9z
	 M502.5,192.5c2.5,0,4.7-1.2,6.5-3.8c1.7-2.6,2.7-5.6,2.7-9.1c0-4.1-0.9-7.2-2.6-9.3c-1.7-2-4.1-3.1-7.2-3.1h-10.1v25.3L502.5,192.5
	L502.5,192.5z"/>
<path class="st0" d="M558.7,231.4c0-0.2,0.1-0.6,0.2-1.4l19.1-69c0.4-1.4,1.9-2,4.2-2h3.4c2.5,0,4,0.6,4.2,2l19.1,69
	c0.2,0.5,0.4,1,0.4,1.4c0,0.6-0.4,1-1,1.4c-0.6,0.4-1.6,0.5-2.9,0.5h-1.7c-2.2,0-3.5-0.6-3.8-1.7l-4.6-17.3h-22.7l-4.5,17.3
	c-0.2,1.1-1.5,1.7-3.8,1.7h-1.7C560.1,233.2,558.7,232.6,558.7,231.4z M593,206.2l-7.4-28.9c-0.2-0.9-0.6-3.1-1.1-6.5h-0.5
	c-0.1,0.5-0.2,1.2-0.4,2.5l-0.9,4l-7.4,28.9H593z"/>
<path class="st0" d="M658.4,231.5L640,162.1c-0.1-0.2-0.1-0.4-0.2-0.6s-0.1-0.5-0.1-0.7c0-1.2,1.4-1.7,4.2-1.7h1.5
	c2.4,0,3.6,0.6,3.8,1.7l13,52.1c0.6,2.4,1.2,5.5,2,9.4h0.4c0.2-1.5,0.9-4.6,2.1-9.4l12.9-52.1c0.2-1.1,1.6-1.7,3.8-1.7h1.2
	c2.9,0,4.2,0.6,4.2,1.7c0,0.4-0.1,0.9-0.4,1.5l-18,69.3c-0.2,1.1-1.6,1.7-3.8,1.7h-4.5C660,233.2,658.7,232.6,658.4,231.5z"/>
<path class="st0" d="M729.2,232.2c-0.5-0.5-0.7-1.2-0.7-2.5v-67.5c0-1.1,0.2-2,0.7-2.5c0.5-0.5,1.1-0.7,2.1-0.7h30.4
	c1.4,0,2,1.1,2,3.1v1.7c0,2.1-0.6,3.1-2,3.1H738V191h21.4c1.4,0,2,1,2,3.1v1.7c0,2.1-0.6,3.1-2,3.1H738v25.7h23.7
	c0.7,0,1.2,0.2,1.5,0.7c0.4,0.5,0.5,1.2,0.5,2.5v1.7c0,1.1-0.1,2-0.5,2.5c-0.4,0.5-0.9,0.7-1.5,0.7h-30.4
	C730.4,233,729.7,232.7,729.2,232.2z"/>
<path class="st0" d="M806.2,232.2c-0.5-0.5-0.7-1.2-0.7-2.5v-68.5c0-1.5,1.4-2.4,4-2.4h1.5c2.7,0,4,0.7,4,2.4v63.7h22
	c0.7,0,1.4,0.2,1.6,0.7c0.4,0.5,0.5,1.2,0.5,2.5v1.7c0,1.1-0.1,2-0.5,2.5c-0.4,0.5-0.9,0.7-1.6,0.7h-28.6
	C807.5,233,806.7,232.7,806.2,232.2z"/>
<g>
	<path class="st0" d="M178.8,428.4C80.2,428.4,0,348.2,0,249.6S80.2,70.8,178.8,70.8S357.5,151,357.5,249.6S277.3,428.4,178.8,428.4
		z M178.8,85.4C88.3,85.4,14.6,159,14.6,249.5s73.6,164.1,164.1,164.1S342.9,340,342.9,249.5S269.2,85.4,178.8,85.4z"/>
</g>
<path class="st0" d="M286.5,351.3h-57.1c-4.1,0-7.3-3.2-7.3-7.3v-78.3c0-4.1,3.2-7.3,7.3-7.3s7.3,3.2,7.3,7.3v71h39.8L255,267.5
	c-0.7-2.2-0.2-4.6,1.1-6.5s3.6-3,6-3h5.3l-41-104.3l-38.4,126.1l20.1,60.2c0.7,2.2,0.4,4.7-1,6.6c-1.4,1.9-3.6,3.1-6,3.1h-39.8
	c-2.4,0-4.5-1.1-5.8-3s-1.7-4.2-1.1-6.5l18.2-60.1l-42.5-127L91,257.5h7.2c2.2,0,4.3,1,5.7,2.9c1.4,1.7,1.9,4.1,1.4,6.3L88.1,335
	h38.7v-70c0-4.1,3.2-7.3,7.3-7.3c4.1,0,7.3,3.2,7.3,7.3v77.3c0,4.1-3.2,7.3-7.3,7.3H78.7c-2.2,0-4.3-1-5.7-2.9
	c-1.4-1.7-1.9-4.1-1.4-6.3l17.1-68.3h-8.3c-2.4,0-4.6-1.1-6.1-3.1c-1.4-2-1.7-4.5-0.9-6.7l50.1-133.4c1.1-2.9,3.8-4.7,6.8-4.7h0.1
	c3.1,0,5.8,2.1,6.8,5L180,255.9l38.5-126.6c0.9-3,3.6-5.1,6.7-5.2c3.1-0.1,6,1.7,7.1,4.6l52.6,133.8c0.9,2.2,0.6,4.8-0.7,6.8
	s-3.6,3.2-6.1,3.2h-6.2l21.6,69.1c0.7,2.2,0.2,4.6-1.1,6.5C291,350.1,288.9,351.3,286.5,351.3z M171.3,335h19.9l-10.4-31L171.3,335z
	"/>
</svg>
